<svg width="24" height="24" viewBox="0 0 24 24" fill="none" xmlns="http://www.w3.org/2000/svg">
<path fill-rule="evenodd" clip-rule="evenodd" d="M5.54733 4.26548C5.19336 3.91151 4.61945 3.91151 4.26548 4.26548C3.91151 4.61945 3.91151 5.19336 4.26548 5.54733L10.7182 12L4.26548 18.4527C3.91151 18.8066 3.91151 19.3805 4.26548 19.7345C4.61945 20.0885 5.19336 20.0885 5.54733 19.7345L12 13.2818L18.4527 19.7345C18.8066 20.0885 19.3805 20.0885 19.7345 19.7345C20.0885 19.3805 20.0885 18.8066 19.7345 18.4527L13.2818 12L19.7345 5.54733C20.0885 5.19336 20.0885 4.61945 19.7345 4.26548C19.3805 3.91151 18.8066 3.91151 18.4527 4.26548L12 10.7182L5.54733 4.26548Z" fill="white"/>
</svg>
